<svg id="Layer_1" data-name="Layer 1" xmlns="http://www.w3.org/2000/svg" viewBox="0 0 512 512"><title>decrease-graph-bars-flat</title><path d="M256,510.4C116.1,510.4,2.28,396.28,2.28,256S116.1,1.6,256,1.6,509.72,115.73,509.72,256,395.9,510.4,256,510.4Z" fill="none" stroke="#131313" stroke-miterlimit="10" stroke-width="4.56"/><ellipse cx="256" cy="256" rx="217.71" ry="218.3" fill="#131313"/><polygon points="205.77 216.29 195.99 235.23 187.07 254.78 209.49 255.67 231.9 256.56 223.18 245.2 325.87 184.16 326.87 158.95 215.28 228.71 205.77 216.29" fill="#ede9e2"/><path d="M325.28,337.77A12.21,12.21,0,0,1,313.09,350H300.27a12.21,12.21,0,0,1-12.19-12.22V229.32a12.21,12.21,0,0,1,12.19-12.22h12.82a12.21,12.21,0,0,1,12.19,12.22Z" fill="#ede9e2"/><path d="M275.67,337.77A12.21,12.21,0,0,1,263.48,350H250.64a12.2,12.2,0,0,1-12.19-12.22V257a12.2,12.2,0,0,1,12.19-12.22h12.84A12.21,12.21,0,0,1,275.67,257Z" fill="#ede9e2"/><path d="M213.2,353H200.36a15.27,15.27,0,0,1-15.23-15.28V286.5a15.28,15.28,0,0,1,15.23-15.29H213.2a15.29,15.29,0,0,1,15.24,15.29v51.28A15.28,15.28,0,0,1,213.2,353Zm-12.84-75.73a9.17,9.17,0,0,0-9.13,9.18v51.28a9.18,9.18,0,0,0,9.13,9.18H213.2a9.18,9.18,0,0,0,9.14-9.18V286.5a9.17,9.17,0,0,0-9.14-9.18Z" fill="#ede9e2"/></svg>