<?xml version="1.0" encoding="utf-8"?>
<!-- Generator: Adobe Illustrator 26.0.0, SVG Export Plug-In . SVG Version: 6.00 Build 0)  -->
<svg version="1.1" id="Layer_1" xmlns="http://www.w3.org/2000/svg" xmlns:xlink="http://www.w3.org/1999/xlink" x="0px" y="0px"
	 viewBox="0 0 5000 3200" enable-background="new 0 0 5000 3200" xml:space="preserve">
<path fill-rule="evenodd" clip-rule="evenodd" fill="#08245E" d="M1143.979,1137.479l469.646,961.65l458.357-782.86l503.55,0.699
	l-113.006,195.733h236.62l215.304-372.31l-975.307-0.428l-288.248,539.217l-169.915-352.425l227.516-5.428l111.747-193.549
	L1143.979,1137.479L1143.979,1137.479z"/>
<path fill-rule="evenodd" clip-rule="evenodd" fill="#F4712E" d="M2322.946,1813.382l-71.613,122.095l-443.635,4.527
	l-118.657,198.552l683.94-6.384l186.322-317.176L2322.946,1813.382L2322.946,1813.382z"/>
<g>
	<path fill="#08245E" d="M2261.177,1579.188l-100.583,169.059h-34.729l-105.17-169.059h59.63l64.543,106.809l61.595-106.809
		H2261.177z"/>
	<path fill="#08245E" d="M2443.671,1712.207c0,14.856-3.496,24.793-10.484,29.815c-5.897,4.151-16.602,6.225-32.108,6.225h-107.136
		c-15.726,0-26.431-2.073-32.108-6.225c-6.993-5.022-10.484-14.959-10.484-29.815v-66.509c0-14.852,3.492-24.787,10.484-29.814
		c5.677-4.146,16.382-6.226,32.108-6.226h107.136c15.727,0,26.426,2.079,32.108,6.226c6.988,5.027,10.484,14.963,10.484,29.814
		V1712.207z M2396.82,1711.88v-66.837h-98.618v66.837H2396.82z"/>
	<path fill="#08245E" d="M2652.7,1712.207c0,14.856-3.496,24.793-10.484,29.815c-5.897,4.151-16.602,6.225-32.108,6.225h-90.099
		c-15.727,0-26.431-2.073-32.108-6.225c-7.208-5.022-10.812-14.959-10.812-29.815v-8.518l43.247-7.208v16.054h88.789v-17.037
		h-83.219c-15.512,0-26.211-2.073-32.108-6.225c-7.208-5.022-10.812-14.852-10.812-29.487v-14.088
		c0-14.852,3.604-24.787,10.812-29.814c5.678-4.146,16.382-6.226,32.108-6.226h82.235c14.631,0,25.008,1.858,31.126,5.57
		c7.862,5.027,11.794,14.309,11.794,27.849v8.19l-42.265,8.191v-15.071h-82.235v14.743h83.546c15.727,0,26.426,2.078,32.108,6.226
		c6.988,5.026,10.484,14.855,10.484,29.486V1712.207z"/>
	<path fill="#08245E" d="M2852.553,1644.387h-67.165v103.859h-46.851v-103.859H2671.7v-34.729h180.854V1644.387z"/>
	<path fill="#08245E" d="M3038.32,1748.247h-163.488v-138.589h161.851v34.401H2922.01v15.727h66.837v33.746h-66.837v19.003h116.31
		V1748.247z"/>
	<path fill="#08245E" d="M3262.745,1748.247h-69.459l-57.99-47.834h-22.935v47.834h-46.523v-138.589h131.38
		c12.45,0,21.731,1.966,27.85,5.897c7.423,4.808,11.139,12.998,11.139,24.572v30.143c0,20.099-13.104,30.143-39.315,30.143
		L3262.745,1748.247z M3191.648,1662.407v-14.743c0-2.836-2.078-4.26-6.225-4.26h-73.062v23.263h71.752
		C3189.134,1666.667,3191.648,1665.249,3191.648,1662.407z"/>
	<path fill="#08245E" d="M3421.32,1644.387h-67.165v103.859h-46.851v-103.859h-66.838v-34.729h180.854V1644.387z"/>
	<path fill="#08245E" d="M3607.086,1748.247h-163.488v-138.589h161.851v34.401h-114.672v15.727h66.837v33.746h-66.837v19.003h116.31
		V1748.247z"/>
	<path fill="#08245E" d="M3803.333,1712.207c0,14.856-3.604,24.793-10.812,29.815c-5.683,4.151-16.382,6.225-32.108,6.225h-86.495
		c-15.511,0-26.211-2.073-32.107-6.225c-6.993-5.242-10.484-15.179-10.484-29.815v-66.509c0-14.852,3.491-24.787,10.484-29.814
		c5.896-4.146,16.597-6.226,32.107-6.226h86.495c15.727,0,26.538,2.079,32.436,6.226c6.988,5.027,10.484,14.963,10.484,29.814
		v17.692l-47.179,5.897v-24.245h-77.977v66.837h77.977v-28.177l47.179,8.519V1712.207z"/>
	<path fill="#08245E" d="M4023.83,1748.247h-46.852v-53.404h-92.393v53.404h-47.179v-138.589h47.179v48.162h92.393v-48.162h46.852
		V1748.247z"/>
</g>
<g>
	<path fill="#F4712E" d="M3077.367,1795.179h-46.986v47.341h46.986v-16.063l17.434,3.608v8.853c0,4.77-0.567,8.404-1.701,10.907
		s-3.036,4.261-5.705,5.275c-2.669,1.016-6.39,1.522-11.161,1.522h-44.719c-4.726,0-8.434-0.496-11.127-1.488
		c-2.692-0.992-4.606-2.752-5.74-5.279s-1.701-6.177-1.701-10.95v-39.474c0-4.771,0.567-8.422,1.701-10.949s3.048-4.288,5.74-5.28
		c2.693-0.992,6.401-1.488,11.127-1.488h44.719c4.771,0,8.492,0.51,11.161,1.527c2.669,1.019,4.571,2.783,5.705,5.292
		s1.701,6.155,1.701,10.938v7.102l-17.434,2.781V1795.179z"/>
	<path fill="#F4712E" d="M3120.157,1809.708c0-3.922,0.484-6.91,1.453-8.966c0.968-2.055,2.574-3.483,4.819-4.287
		c2.243-0.803,5.468-1.205,9.673-1.205h47.482c4.205,0,7.43,0.402,9.674,1.205c2.243,0.804,3.851,2.232,4.819,4.287
		c0.968,2.056,1.453,5.044,1.453,8.966v32.387c0,3.875-0.485,6.852-1.453,8.93c-0.969,2.079-2.611,3.532-4.926,4.358
		c-2.315,0.827-5.504,1.24-9.567,1.24h-47.482c-4.11,0-7.323-0.413-9.638-1.24c-2.315-0.826-3.945-2.279-4.891-4.358
		c-0.945-2.078-1.417-5.055-1.417-8.93V1809.708z M3135.11,1844.858h49.467v-38.27h-49.467V1844.858z"/>
	<path fill="#F4712E" d="M3221.699,1856.623v-61.373h10.33l52.177,40.75v-40.75h13.466v61.373h-10.293l-52.001-41.388v41.388
		H3221.699z"/>
	<path fill="#F4712E" d="M3378.235,1806.305h-42.31v12.898h39.971c4.11,0,7.322,0.414,9.638,1.24
		c2.314,0.827,3.944,2.268,4.891,4.323c0.944,2.055,1.417,5.021,1.417,8.894v8.434c0,3.827-0.473,6.78-1.417,8.858
		c-0.946,2.08-2.576,3.544-4.891,4.395c-2.315,0.851-5.527,1.275-9.638,1.275h-39.971c-4.11,0-7.335-0.425-9.673-1.275
		c-2.339-0.851-3.993-2.314-4.961-4.395c-0.97-2.078-1.453-5.031-1.453-8.858v-1.701l13.323-2.48v7.229h45.215v-14.032h-39.809
		c-4.068,0-7.274-0.413-9.615-1.24c-2.342-0.826-4.01-2.268-5.003-4.323s-1.489-5.043-1.489-8.965v-6.874
		c0-3.922,0.496-6.898,1.488-8.93s2.657-3.461,4.996-4.288c2.339-0.826,5.54-1.24,9.604-1.24h36.428
		c5.906,0,10.075,0.925,12.51,2.774c2.433,1.849,3.649,5.38,3.649,10.594v1.493l-12.901,2.749V1806.305z"/>
	<path fill="#F4712E" d="M3428.963,1795.25v49.893h42.734v-49.893h15.095v46.845c0,3.875-0.497,6.839-1.49,8.895
		c-0.993,2.055-2.66,3.508-5.001,4.358s-5.568,1.275-9.683,1.275h-40.647c-4.115,0-7.331-0.425-9.648-1.275
		s-3.949-2.314-4.895-4.395c-0.945-2.078-1.419-5.031-1.419-8.858v-46.845H3428.963z"/>
	<path fill="#F4712E" d="M3510.449,1856.623v-61.373h15.095v49.893h48.121v11.48H3510.449z"/>
	<path fill="#F4712E" d="M3623.471,1806.305v50.317h-14.953v-50.317h-29.623v-11.056h74.271v11.056H3623.471z"/>
	<path fill="#F4712E" d="M3659.53,1856.623l36.427-61.373h14.387l36.993,61.373h-16.796l-7.725-13.465h-40.608l-7.725,13.465
		H3659.53z M3688.586,1831.961h28.135l-14.315-25.584L3688.586,1831.961z"/>
	<path fill="#F4712E" d="M3758.944,1856.623v-61.373h10.33l52.177,40.75v-40.75h13.466v61.373h-10.293l-52.001-41.388v41.388
		H3758.944z"/>
	<path fill="#F4712E" d="M3912.504,1806.589h-40.325v38.27h40.325v-13.04l15.095,3.066v7.223c0,3.824-0.484,6.774-1.452,8.852
		c-0.97,2.077-2.623,3.54-4.961,4.39c-2.339,0.851-5.563,1.274-9.674,1.274h-38.341c-4.157,0-7.382-0.437-9.673-1.312
		c-2.293-0.873-3.91-2.338-4.855-4.394c-0.945-2.055-1.417-4.996-1.417-8.823v-32.387c0-5.717,1.122-9.556,3.366-11.517
		c2.243-1.96,6.438-2.941,12.579-2.941h38.341c4.11,0,7.335,0.415,9.674,1.244c2.338,0.829,3.991,2.274,4.961,4.335
		c0.968,2.061,1.452,5.032,1.452,8.917v5.969l-15.095,2.214V1806.589z"/>
	<path fill="#F4712E" d="M3971.737,1856.623v-27.568l-33.521-33.805h20.197l21.898,22.891l22.183-22.891h17.575l-33.379,33.521
		v27.852H3971.737z"/>
</g>
</svg>
