<?xml version="1.0" encoding="iso-8859-1"?>
<!-- Generator: Adobe Illustrator 25.2.1, SVG Export Plug-In . SVG Version: 6.00 Build 0)  -->
<svg version="1.1" id="Layer_1" xmlns="http://www.w3.org/2000/svg" xmlns:xlink="http://www.w3.org/1999/xlink" x="0px" y="0px"
	 viewBox="0 0 50 50" style="enable-background:new 0 0 50 50;" xml:space="preserve">
<polyline style="fill:none;stroke:#000000;stroke-width:2;stroke-linecap:round;stroke-linejoin:round;stroke-miterlimit:10;" points="
	48,16 25,33 2,16 "/>
<polyline style="fill:none;stroke:#000000;stroke-width:2;stroke-linecap:round;stroke-linejoin:round;stroke-miterlimit:10;" points="
	38.12,10.3 25,20 11.88,10.3 11.87,10.3 "/>
<path style="fill:none;stroke:#000000;stroke-width:2;stroke-linecap:round;stroke-linejoin:round;stroke-miterlimit:10;" d="M12,11
	v31H4.5C3.119,42,2,40.881,2,39.5V12.41c0-1.508,0.616-2.872,1.61-3.852C5.092,7.096,7.467,7.042,9.14,8.28l2.73,2.02h0.01"/>
<path style="fill:none;stroke:#000000;stroke-width:2;stroke-linecap:round;stroke-linejoin:round;stroke-miterlimit:10;" d="
	M38.12,10.3l2.746-2.027c1.672-1.235,4.043-1.181,5.525,0.278c0.01,0.01,0.02,0.019,0.03,0.029C47.4,9.56,48,10.92,48,12.41V39.5
	c0,1.381-1.119,2.5-2.5,2.5H38V11"/>
</svg>