<svg id="Layer_1" data-name="Layer 1" xmlns="http://www.w3.org/2000/svg" viewBox="0 0 512 512"><title>businessman-flat</title><path d="M256,510.4C116.1,510.4,2.28,396.28,2.28,256S116.1,1.6,256,1.6,509.72,115.73,509.72,256,395.9,510.4,256,510.4Z" fill="none" stroke="#131313" stroke-miterlimit="10" stroke-width="4.56"/><ellipse cx="256" cy="256" rx="217.71" ry="218.3" fill="#131313"/><path d="M256.59,220.11a42.25,42.25,0,1,0-42.13-42.25A42.2,42.2,0,0,0,256.59,220.11Z" fill="#ede9e2"/><path d="M304.79,237.15H293l-31.74,76.58,9.52-42.94-10.2-11.33,10.2-12.88-14.37-15.44-14.82,16,10.2,12.35-10.2,11.85,9.5,41.23-31.11-75.38H207.22A20.43,20.43,0,0,0,187,257.74V355.8a20.43,20.43,0,0,0,20.25,20.6h97.57A20.42,20.42,0,0,0,325,355.8V257.74A20.42,20.42,0,0,0,304.79,237.15Z" fill="#ede9e2"/></svg>