<svg id="Layer_1" data-name="Layer 1" xmlns="http://www.w3.org/2000/svg" viewBox="0 0 512 512"><title>handshake-flat</title><path d="M256,510.4C116.1,510.4,2.28,396.28,2.28,256S116.1,1.6,256,1.6,509.72,115.73,509.72,256,395.9,510.4,256,510.4Z" fill="none" stroke="#131313" stroke-miterlimit="10" stroke-width="4.56"/><ellipse cx="256" cy="256" rx="217.71" ry="218.3" fill="#131313"/><path d="M359.41,203.09l-44.23,9.49.6,3.14a19,19,0,0,0-9.45-8.13L272,197.32c-4-1.48-10.35.1-16.6,2.62l-.62-.61-51-.42-.4.07a13.36,13.36,0,0,0-6,2.89L169.86,192l-39.36,92.44L173.23,305c12.21-3.32,17.41-21.14,19.23-29.61l3.11,2.15,1.63,1c-.35,5.19.88,12.75,12,10.52,0,0,.42,22.56,16.27,11.25,0,0,.72,14.93,14.41,10.05,0,0,2.33,12.81,17.22,6.15l2.58,1.63.59.16c.31.08,7.53,2.08,13.79,1.59a13.82,13.82,0,0,0,7.55-2.56c4.79-.43,14.45-2.06,18.91-8.13.79,0,1.69,0,2.68-.1,5.57-.43,9.91-2.37,12.52-5.58a12.58,12.58,0,0,0,2.75-7.31s9.39,17.7,22.82,19.29l40.27-19ZM313,289.32l-3.41,1,.44,3.56c.37,2.9-.51,4-.84,4.38-1.11,1.37-3.47,2.26-6.68,2.51a23.3,23.3,0,0,1-3.87,0l-3.27-.4-1.16,3.08c-1.22,3.22-8,5.17-13.79,5.63-.44,0-.72,0-.76,0l-1.89.06-1.2,1.49c-.2.26-1.13.76-3.2.92A36.76,36.76,0,0,1,263,310.39l-7.52-4.76c-.7-3.37-2.52-7-7-6.88,0,0-1.17-18-14.55-9.15,0,0-4.46-14.64-16.71-8.23l-17-10.77-12.68-8.8-.32-.21a1.68,1.68,0,0,1-.48-.33,2,2,0,0,1,.31-.76l.43-.51.25-.82c.15-.47,13.94-47.19,15-50.57.16-.56,1.22-1.07,1.93-1.29l35.44.29c-2.92,1.7-4.75,2.9-4.75,2.9-5.89,4.49-7.91,27.25-7.91,27.25-2,5.3,3.84,9.32,3.84,9.32,10.36,6.8,21.73-18.93,21.73-18.93,5.31-4.82,14.46-1.53,24.44,5.14,17.15,17,37.06,37,42.68,43.86,1.8,2.23,2.48,4.12,2,5.61C321.2,285.94,315.54,288.55,313,289.32Z" fill="#ede9e2"/></svg>